<?xml version="1.0" encoding="UTF-8" standalone="no"?>
<!-- Created with Inkscape (http://www.inkscape.org/) -->

<svg
   width="116.74383mm"
   height="86.869408mm"
   viewBox="0 0 116.74383 86.869408"
   version="1.1"
   id="svg1"
   inkscape:version="1.4.4 (dcaf3e7, 2026-05-05)"
   sodipodi:docname="barrel.svg"
   xmlns:inkscape="http://www.inkscape.org/namespaces/inkscape"
   xmlns:sodipodi="http://sodipodi.sourceforge.net/DTD/sodipodi-0.dtd"
   xmlns="http://www.w3.org/2000/svg"
   xmlns:svg="http://www.w3.org/2000/svg">
  <sodipodi:namedview
     id="namedview1"
     pagecolor="#ffffff"
     bordercolor="#000000"
     borderopacity="0.25"
     inkscape:showpageshadow="2"
     inkscape:pageopacity="0.0"
     inkscape:pagecheckerboard="0"
     inkscape:deskcolor="#d1d1d1"
     inkscape:document-units="mm"
     inkscape:zoom="1.4142136"
     inkscape:cx="348.9572"
     inkscape:cy="632.86057"
     inkscape:window-width="2560"
     inkscape:window-height="1381"
     inkscape:window-x="0"
     inkscape:window-y="31"
     inkscape:window-maximized="1"
     inkscape:current-layer="g11">
    <inkscape:page
       x="0"
       y="0"
       width="116.74383"
       height="86.869408"
       id="page2"
       margin="0"
       bleed="0" />
  </sodipodi:namedview>
  <defs
     id="defs1" />
  <g
     inkscape:label="Ebene 1"
     inkscape:groupmode="layer"
     id="layer1"
     transform="translate(-29.022125,-91.793478)">
    <path
       id="path1"
       style="opacity:1;fill:none;fill-opacity:1;stroke:#000000;stroke-width:0.5;stroke-dasharray:1, 3;stroke-dashoffset:0;stroke-opacity:1"
       d="m 38.731735,100.25 c 5.224467,0 9.459735,15.6625 9.459735,34.98317 0,19.32067 -4.235268,34.98317 -9.459735,34.98317"
       sodipodi:nodetypes="csc" />
    <path
       id="ellipse1"
       style="opacity:1;fill:#ffffff;stroke:#000000;stroke-width:0.499999;stroke-opacity:1"
       d="m 145.51595,135.15307 c 0,19.32066 -4.23526,34.98316 -9.45973,34.98317 -5.22447,1e-5 -9.45974,-15.66249 -9.45974,-34.98317 0,-19.32068 4.23527,-34.98318 9.45974,-34.98317 5.22447,1e-5 9.45973,15.66251 9.45973,34.98317 z"
       sodipodi:nodetypes="sssss" />
    <path
       id="path43"
       style="opacity:1;fill:#c1baba;fill-opacity:0.604592;stroke:#000000;stroke-width:0.499999;stroke-opacity:1"
       d="m 126.59648,135.15307 c 0,-19.32068 4.23527,-34.98318 9.45974,-34.98317 0,0 -31.29624,-8.126423 -48.943658,-8.126423 h -4e-5 c -16.209274,0 -44.273266,7.077439 -48.73966,8.231023 -4.381184,0.75956 -9.100737,13.62679 -9.100737,34.95859 0,19.02721 4.107394,34.5067 9.222176,34.97254 0.226231,0.0599 31.035668,8.20725 48.618221,8.20725 17.647418,0 49.119438,-8.32256 49.119438,-8.32256 -5.40021,0.0459 -9.63548,-15.61657 -9.63548,-34.93725 z"
       sodipodi:nodetypes="scsscscscs" />
    <g
       stroke="#000000"
       fill="#000000"
       stroke-width="0"
       transform="matrix(0.01271257,0,0,-0.01271257,69.726356,156.07505)"
       id="g11">
      <g
         data-mml-node="math"
         data-latex="F(Q,V)"
         data-semantic-type="appl"
         data-semantic-role="simple function"
         data-semantic-annotation="depth:1"
         data-semantic-id="9"
         data-semantic-children="0,7"
         data-semantic-content="8,0"
         data-semantic-attributes="latex:F(Q,V)"
         data-semantic-owns="0 8 7"
         aria-level="0"
         data-speech-node="true"
         data-semantic-structure="(9 0 8 (7 1 (6 2 3 4) 5))"
         id="g10"
         transform="translate(-718.53851,1389.8629)">
        <g
           data-mml-node="mi"
           data-latex="F"
           data-semantic-type="identifier"
           data-semantic-role="simple function"
           data-semantic-font="italic"
           data-semantic-annotation="clearspeak:simple;nemeth:number;depth:2"
           data-semantic-id="0"
           data-semantic-parent="9"
           data-semantic-attributes="latex:F"
           data-semantic-operator="appl"
           aria-level="1"
           data-speech-node="true"
           id="g1">
          <path
             id="use1"
             d="m 199,656 c 0,-10 11,-15 32,-15 40,0 60,-4 60,-13 0,-3 -2,-10 -5,-23 L 156,82 C 150,60 140,47 126,42 119,40 101,39 70,39 48,39 38,37 38,16 38,5 44,0 57,0 L 187,3 335,0 c 16,0 24,8 24,23 0,17 -11,16 -37,16 -44,0 -69,2 -75,7 -3,1 -4,5 -4,10 l 64,265 h 93 c 46,0 78,-2 78,-40 0,-13 -2,-29 -7,-48 -1,-3 -2,-7 -3,-11 0,-11 5,-16 16,-16 5,1 12,8 19,23 l 54,215 c 2,8 3,14 3,17 -3,9 -9,14 -16,14 -8,0 -14,-8 -18,-23 -10,-38 -24,-62 -40,-74 -16,-12 -44,-18 -84,-18 h -85 l 62,246 c 8,34 8,35 50,35 h 130 c 97,0 141,-15 141,-104 0,-20 -1,-38 -3,-53 -1,-11 -2,-17 -2,-18 0,-11 5,-16 15,-16 10,0 16,9 18,28 l 20,171 c 3,28 -4,31 -31,31 H 233 c -23,0 -34,-1 -34,-24 z" />
        </g>
        <g
           data-mml-node="mo"
           data-semantic-type="punctuation"
           data-semantic-role="application"
           data-semantic-annotation="nemeth:number;depth:2"
           data-semantic-id="8"
           data-semantic-parent="9"
           data-semantic-added="true"
           data-semantic-operator="appl"
           aria-level="1"
           data-speech-node="true"
           transform="translate(751)"
           id="g2">
          <path
             id="use2"
             d="" />
        </g>
        <g
           data-mml-node="mrow"
           data-semantic-added="true"
           data-semantic-type="fenced"
           data-semantic-role="leftright"
           data-semantic-annotation="depth:2"
           data-semantic-id="7"
           data-semantic-children="6"
           data-semantic-content="1,5"
           data-semantic-parent="9"
           data-semantic-owns="1 6 5"
           aria-level="1"
           data-speech-node="true"
           transform="translate(751)"
           id="g9">
          <g
             data-mml-node="mo"
             data-latex="("
             data-semantic-type="fence"
             data-semantic-role="open"
             data-semantic-annotation="depth:3"
             data-semantic-id="1"
             data-semantic-parent="7"
             data-semantic-attributes="latex:("
             data-semantic-operator="fenced"
             aria-level="2"
             data-speech-node="true"
             id="g3">
            <path
               id="use3"
               d="m 318,-248 c 9,0 14,5 14,14 0,3 -2,7 -5,11 -52,40 -94,106 -125,197 -27,79 -41,157 -41,234 v 84 c 0,77 14,155 41,234 31,91 73,157 125,197 3,3 5,7 5,11 0,9 -5,14 -14,14 -1,0 -4,-1 -7,-3 C 251,699 201,631 160,540 121,453 101,371 101,292 v -84 c 0,-79 20,-161 59,-248 41,-91 91,-159 151,-205 3,-2 6,-3 7,-3 z" />
          </g>
          <g
             data-mml-node="mrow"
             data-semantic-added="true"
             data-semantic-type="punctuated"
             data-semantic-role="sequence"
             data-semantic-annotation="depth:3"
             data-semantic-id="6"
             data-semantic-children="2,3,4"
             data-semantic-content="3"
             data-semantic-parent="7"
             data-semantic-owns="2 3 4"
             aria-level="2"
             data-speech-node="true"
             transform="translate(389)"
             id="g7">
            <g
               data-mml-node="mi"
               data-latex="Q"
               data-semantic-type="identifier"
               data-semantic-role="latinletter"
               data-semantic-font="italic"
               data-semantic-annotation="clearspeak:simple;depth:4"
               data-semantic-id="2"
               data-semantic-parent="6"
               data-semantic-attributes="latex:Q"
               aria-level="3"
               data-speech-node="true"
               id="g4">
              <path
                 id="use4"
                 d="m 306,-24 c 29,0 60,5 93,14 -3,-38 -4,-62 -4,-71 0,-75 29,-113 86,-113 61,0 108,49 131,94 25,52 38,86 38,102 0,9 -5,14 -15,14 -7,0 -12,-4 -15,-13 -15,-46 -56,-93 -112,-93 -51,0 -58,41 -66,96 84,33 155,90 212,172 57,82 86,167 86,256 0,79 -23,143 -70,194 -47,51 -109,77 -186,77 C 431,705 378,692 325,665 217,612 138,528 87,415 62,358 49,302 49,245 49,88 151,-24 306,-24 M 645,466 C 645,405 630,335 600,254 565,161 511,92 436,48 c -4,22 -10,42 -18,60 -13,30 -37,45 -72,45 -55,0 -105,-50 -105,-105 0,-9 1,-18 3,-25 -67,31 -100,94 -100,190 0,42 8,93 25,153 35,127 98,217 189,270 43,24 83,36 120,36 110,0 167,-91 167,-206 M 346,123 c 37,0 56,-27 56,-80 0,-9 -3,-14 -9,-16 C 365,15 338,9 312,9 c -28,0 -42,13 -42,39 0,38 38,75 76,75 z" />
            </g>
            <g
               data-mml-node="mo"
               data-latex=","
               data-semantic-type="punctuation"
               data-semantic-role="comma"
               data-semantic-annotation="depth:4"
               data-semantic-id="3"
               data-semantic-parent="6"
               data-semantic-attributes="latex:,"
               data-semantic-operator="punctuated"
               aria-level="3"
               data-speech-node="true"
               transform="translate(791)"
               id="g5">
              <path
                 id="use5"
                 d="m 139,106 c -32,0 -53,-24 -53,-56 0,-30 23,-55 53,-55 14,0 26,4 35,13 l 1,-8 c 0,-63 -21,-117 -63,-160 -7,-8 -11,-14 -11,-18 0,-10 4,-15 13,-15 9,0 21,12 38,35 34,48 51,101 51,158 0,53 -18,106 -64,106 z" />
            </g>
            <g
               data-mml-node="mi"
               data-latex="V"
               data-semantic-type="identifier"
               data-semantic-role="latinletter"
               data-semantic-font="italic"
               data-semantic-annotation="clearspeak:simple;depth:4"
               data-semantic-id="4"
               data-semantic-parent="6"
               data-semantic-attributes="latex:V"
               aria-level="3"
               data-speech-node="true"
               transform="translate(1235.7)"
               id="g6">
              <path
                 id="use6"
                 d="m 671,680 c -19,0 -79,3 -98,3 -15,0 -23,-8 -23,-23 0,-10 7,-15 20,-16 28,-1 42,-11 42,-28 0,-9 -5,-21 -14,-36 L 300,107 234,619 c 0,17 21,25 64,25 20,0 29,7 29,24 0,10 -6,15 -18,15 -22,0 -100,-3 -122,-3 -20,0 -88,3 -108,3 -15,0 -23,-8 -23,-23 0,-11 10,-16 29,-16 17,0 29,-2 37,-4 16,-5 15,-7 18,-26 L 218,4 c 3,-17 11,-26 24,-26 13,0 23,7 31,20 l 356,566 c 23,36 45,59 67,68 15,7 34,11 56,12 11,1 16,8 17,23 1,11 -5,16 -17,16 -15,0 -66,-3 -81,-3 z" />
            </g>
          </g>
          <g
             data-mml-node="mo"
             data-latex=")"
             data-semantic-type="fence"
             data-semantic-role="close"
             data-semantic-annotation="depth:3"
             data-semantic-id="5"
             data-semantic-parent="7"
             data-semantic-attributes="latex:)"
             data-semantic-operator="fenced"
             aria-level="2"
             data-speech-node="true"
             transform="translate(2394.7)"
             id="g8">
            <path
               id="use7"
               d="m 78,-245 c 60,46 110,114 151,205 39,87 59,169 59,248 v 84 c 0,79 -20,161 -59,248 -41,91 -91,159 -151,205 -3,2 -6,3 -7,3 -9,0 -14,-5 -14,-14 0,-4 2,-8 5,-11 52,-40 94,-106 125,-197 27,-79 41,-157 41,-234 v -84 c 0,-77 -14,-155 -41,-234 -31,-91 -73,-157 -125,-197 -3,-4 -5,-8 -5,-11 0,-9 5,-14 14,-14 1,0 4,1 7,3 z" />
          </g>
        </g>
      </g>
    </g>
  </g>
</svg>
